<?xml version="1.0" standalone="no"?>
<!DOCTYPE svg PUBLIC "-//W3C//DTD SVG 20010904//EN"
 "http://www.w3.org/TR/2001/REC-SVG-20010904/DTD/svg10.dtd">
<svg version="1.0" xmlns="http://www.w3.org/2000/svg"
 width="465.000000pt" height="357.000000pt" viewBox="0 0 465.000000 357.000000"
 preserveAspectRatio="xMidYMid meet">
<metadata>
Created by potrace 1.16, written by Peter Selinger 2001-2019
</metadata>
<g transform="translate(0.000000,357.000000) scale(0.100000,-0.100000)"
fill="#000000" stroke="none">
<path d="M2153 3539 c-1136 -72 -2052 -803 -2089 -1668 -7 -157 6 -292 43
-431 13 -52 26 -106 29 -119 8 -40 51 -139 98 -224 182 -334 494 -617 898
-812 745 -360 1681 -360 2426 0 500 242 857 616 1001 1050 55 165 72 271 72
445 0 174 -17 280 -72 445 -217 653 -919 1160 -1785 1290 -104 15 -387 36
-459 33 -22 0 -95 -4 -162 -9z m217 -1511 c0 -159 1 -171 16 -150 36 51 140
69 211 35 62 -29 73 -69 73 -275 l0 -178 60 0 60 0 0 220 0 220 -30 0 c-16 0
-30 5 -30 10 0 6 48 10 125 10 l125 0 0 -37 1 -38 17 27 c22 37 69 58 127 58
58 0 100 -21 121 -61 l16 -31 18 30 c26 42 68 62 130 62 61 0 99 -20 126 -64
16 -27 19 -56 22 -218 l4 -188 24 0 c13 0 24 -4 24 -10 0 -6 -53 -10 -140 -10
-87 0 -140 4 -140 10 0 6 7 10 15 10 13 0 15 29 15 204 0 132 -4 207 -10 211
-19 12 -59 -24 -69 -62 -6 -21 -11 -109 -11 -195 0 -151 1 -158 20 -158 11 0
20 -4 20 -10 0 -6 -52 -10 -135 -10 -83 0 -135 4 -135 10 0 6 9 10 21 10 21 0
21 3 17 200 -2 125 -7 203 -14 210 -16 16 -37 4 -59 -33 -17 -28 -20 -55 -23
-204 -4 -170 -4 -173 17 -173 12 0 21 -4 21 -10 0 -6 -103 -10 -290 -10 -187
0 -290 4 -290 10 0 6 9 10 21 10 20 0 20 4 17 200 -2 133 -7 203 -14 211 -20
19 -53 0 -74 -41 -18 -34 -20 -59 -20 -205 0 -158 1 -165 20 -165 11 0 20 -4
20 -10 0 -6 -55 -10 -145 -10 -90 0 -145 4 -145 10 0 6 11 10 25 10 l25 0 0
360 0 360 -25 0 c-14 0 -25 5 -25 10 0 6 48 10 125 10 l125 0 0 -172z m-1460
117 c35 -9 58 -11 64 -5 6 6 16 10 23 10 10 0 13 -26 13 -105 0 -58 -4 -105
-8 -105 -5 0 -30 32 -57 71 -61 89 -103 119 -168 119 -58 0 -99 -19 -115 -55
-18 -39 -15 -60 14 -94 20 -24 49 -38 140 -67 187 -60 234 -110 234 -246 -1
-96 -33 -159 -104 -203 -41 -25 -62 -31 -125 -33 -42 -2 -111 3 -153 11 -68
13 -78 13 -92 -1 -9 -9 -17 -14 -20 -11 -2 2 -8 57 -11 122 -7 100 -6 117 7
117 8 0 19 -10 25 -22 21 -46 96 -130 141 -159 88 -56 203 -31 218 47 15 80
-22 115 -173 164 -52 16 -112 43 -134 58 -130 92 -111 305 34 377 60 30 158
34 247 10z m586 -240 c49 -32 58 -68 64 -245 4 -142 7 -165 21 -168 17 -3 39
42 39 79 0 11 5 19 10 19 15 0 12 -55 -4 -94 -21 -50 -51 -66 -121 -66 -61 0
-125 26 -125 51 0 6 -14 -3 -30 -21 -30 -32 -31 -32 -106 -28 -71 3 -78 6
-105 36 -24 27 -29 41 -29 83 0 42 5 55 28 79 30 30 101 50 177 50 l45 0 0 98
c0 109 -10 136 -51 130 -18 -2 -25 -10 -27 -30 -2 -20 1 -28 12 -28 12 0 16
-11 16 -44 0 -36 -5 -48 -26 -65 -32 -25 -90 -28 -121 -6 -51 36 -33 139 29
171 65 34 252 33 304 -1z m539 5 c53 -26 79 -69 72 -122 -9 -68 -61 -101 -122
-78 -39 15 -54 38 -55 83 0 30 3 37 20 37 15 0 20 7 20 29 0 61 -66 67 -97 8
-14 -26 -17 -59 -18 -172 0 -188 16 -225 97 -225 49 0 96 34 119 85 19 43 39
60 39 33 -1 -27 -39 -96 -64 -116 -44 -34 -92 -45 -178 -40 -66 4 -85 9 -121
34 -134 93 -124 358 17 431 50 26 76 31 155 32 55 1 85 -4 116 -19z m1969 8
c52 -16 108 -72 124 -124 15 -52 16 -165 0 -215 -17 -58 -70 -114 -125 -133
-27 -9 -79 -16 -123 -16 -160 0 -250 88 -250 246 0 114 55 205 145 238 50 18
174 20 229 4z"/>
<path d="M3862 1902 c-7 -5 -17 -24 -22 -43 -13 -46 -13 -330 1 -366 18 -47
47 -55 79 -23 19 19 20 33 20 203 0 192 -7 230 -45 235 -11 1 -26 -2 -33 -6z"/>
</g>
</svg>
